<?xml version="1.0" standalone="no"?>
<!DOCTYPE svg PUBLIC "-//W3C//DTD SVG 20010904//EN"
 "http://www.w3.org/TR/2001/REC-SVG-20010904/DTD/svg10.dtd">
<svg version="1.0" xmlns="http://www.w3.org/2000/svg"
 width="444.000000pt" height="444.000000pt" viewBox="0 0 444.000000 444.000000"
 preserveAspectRatio="xMidYMid meet">
<metadata>
Created by potrace 1.11, written by Peter Selinger 2001-2013
</metadata>
<g transform="translate(0.000000,444.000000) scale(0.100000,-0.100000)"
fill="#000000" stroke="none">
<path d="M737 4372 c-15 -2 -31 -11 -36 -20 -33 -61 -75 -313 -106 -632 -38
-390 -71 -556 -146 -730 -17 -41 -42 -100 -55 -130 -42 -99 -33 -170 51 -410
37 -106 48 -196 25 -210 -16 -10 -50 -185 -49 -255 0 -73 14 -114 61 -182 40
-59 50 -91 138 -482 82 -367 109 -532 121 -741 11 -208 26 -310 43 -310 29 0
54 45 87 155 l18 60 0 -182 1 -183 230 0 230 0 3 253 2 252 3 -251 2 -251 402
-6 c373 -6 405 -5 443 12 45 20 182 137 190 162 3 10 21 19 43 23 20 3 78 29
127 57 712 402 1160 555 1611 548 l137 -2 24 27 c12 15 23 37 23 48 0 37 -46
102 -89 126 -32 18 -41 29 -41 50 0 14 -28 141 -61 282 -168 700 -152 646
-254 869 -37 81 -49 118 -53 170 -4 64 11 148 38 206 21 47 40 133 40 184 0
64 -30 128 -69 147 -13 7 -18 13 -11 16 8 2 0 28 -25 78 -72 144 -94 236 -120
510 -16 164 -52 345 -79 398 -28 54 -47 62 -201 88 -241 39 -422 47 -909 40
-242 -3 -517 -10 -611 -15 -133 -7 -174 -6 -191 4 -11 7 -67 33 -125 57 -57
24 -144 70 -193 101 -57 36 -108 60 -142 67 -46 10 -445 11 -527 2z m230 -104
c-3 -8 -6 -5 -6 6 -1 11 2 17 5 13 3 -3 4 -12 1 -19z m-10 -90 c-3 -7 -5 -2
-5 12 0 14 2 19 5 13 2 -7 2 -19 0 -25z m-10 -75 c-3 -10 -5 -4 -5 12 0 17 2
24 5 18 2 -7 2 -21 0 -30z m-10 -90 c-3 -10 -5 -2 -5 17 0 19 2 27 5 18 2 -10
2 -26 0 -35z m2313 30 c0 -5 -39 -7 -87 -5 -163 5 -179 8 -45 10 72 1 132 -1
132 -5z m-2323 -100 c-3 -10 -5 -4 -5 12 0 17 2 24 5 18 2 -7 2 -21 0 -30z
m1486 -30 c-7 -2 -19 -2 -25 0 -7 3 -2 5 12 5 14 0 19 -2 13 -5z m140 -10
c-13 -2 -33 -2 -45 0 -13 2 -3 4 22 4 25 0 35 -2 23 -4z m-1636 -35 c-3 -7 -5
-2 -5 12 0 14 2 19 5 13 2 -7 2 -19 0 -25z m-10 -80 c-3 -7 -5 -2 -5 12 0 14
2 19 5 13 2 -7 2 -19 0 -25z m-10 -70 c-3 -7 -5 -2 -5 12 0 14 2 19 5 13 2 -7
2 -19 0 -25z m-10 -70 c-3 -8 -6 -5 -6 6 -1 11 2 17 5 13 3 -3 4 -12 1 -19z
m2230 -220 c-3 -7 -5 -2 -5 12 0 14 2 19 5 13 2 -7 2 -19 0 -25z m-1940 -360
c-3 -8 -6 -5 -6 6 -1 11 2 17 5 13 3 -3 4 -12 1 -19z m2491 -35 c-32 -2 -84
-2 -115 0 -32 2 -6 3 57 3 63 0 89 -1 58 -3z m-1581 -120 c-20 -2 -52 -2 -70
0 -17 2 0 4 38 4 39 0 53 -2 32 -4z m-1285 -233 c-8 -129 -9 -135 -10 -55 -2
104 12 314 16 245 1 -25 -2 -110 -6 -190z m714 -172 c-259 -6 -383 -5 -390 2
-7 7 111 10 380 8 l389 -1 -379 -9z m2181 -110 c-2 -24 -4 -5 -4 42 0 47 2 66
4 43 2 -24 2 -62 0 -85z m-2590 106 c-3 -3 -12 -4 -19 -1 -8 3 -5 6 6 6 11 1
17 -2 13 -5z m-286 -244 c6 0 7 -4 4 -10 -13 -22 -25 -8 -24 28 2 30 3 32 6
10 2 -16 9 -28 14 -28z m406 -562 c-3 -8 -6 -5 -6 6 -1 11 2 17 5 13 3 -3 4
-12 1 -19z m-330 -365 c-2 -37 -3 -9 -3 62 0 72 1 102 3 68 2 -34 2 -93 0
-130z m330 135 c-3 -8 -6 -5 -6 6 -1 11 2 17 5 13 3 -3 4 -12 1 -19z"/>
</g>
</svg>
